{
  "asset" : {
    "generator" : "UE Viewer (umodel) build 1590",
    "version" : "2.0"
  },
  "scene" : 0,
  "scenes" : [
    {
      "nodes" : [ 0 ]
    }
  ],
  "nodes" : [
    {
      "name" : "LM__Color_c2",
      "mesh" : 0
    }
  ],
  "materials" : [
    {
      "name" : "dummy_material_0",
      "pbrMetallicRoughness" : {
        "baseColorFactor" : [ 0.3, 0.3, 0.3, 1.0 ],
        "metallicFactor" : 0.1,
        "roughnessFactor" : 0.5
      }
    }
  ],
  "meshes" : [
    {
      "primitives" : [
        {
          "attributes" : {
            "POSITION" : 1,
            "NORMAL" : 2,
            "TANGENT" : 3,
            "TEXCOORD_0" : 4,
            "TEXCOORD_1" : 5
          },
          "indices" : 0,
          "material" : 0
        }
      ],
      "name" : "LM__Color_c2"
    }
  ],
  "buffers" : [
    {
      "uri" : "LM__Color_c2.bin",
      "byteLength" : 89784
    }
  ],
  "bufferViews" : [
    {
      "buffer" : 0,
      "byteOffset" : 0,
      "byteLength" : 3096
    },
    {
      "buffer" : 0,
      "byteOffset" : 3096,
      "byteLength" : 18576
    },
    {
      "buffer" : 0,
      "byteOffset" : 21672,
      "byteLength" : 18576
    },
    {
      "buffer" : 0,
      "byteOffset" : 40248,
      "byteLength" : 24768
    },
    {
      "buffer" : 0,
      "byteOffset" : 65016,
      "byteLength" : 12384
    },
    {
      "buffer" : 0,
      "byteOffset" : 77400,
      "byteLength" : 12384
    }
  ],
  "accessors" : [
    {
      "bufferView" : 0,
      "componentType" : 5123,
      "count" : 1548,
      "type" : "SCALAR"
    },
    {
      "bufferView" : 1,
      "min" : [ -9.92051, -0.194112, -11.5326 ],
      "max" : [ 9.71426, 3.28544, -1.63501 ],
      "componentType" : 5126,
      "count" : 1548,
      "type" : "VEC3"
    },
    {
      "bufferView" : 2,
      "componentType" : 5126,
      "count" : 1548,
      "type" : "VEC3"
    },
    {
      "bufferView" : 3,
      "componentType" : 5126,
      "count" : 1548,
      "type" : "VEC4"
    },
    {
      "bufferView" : 4,
      "componentType" : 5126,
      "count" : 1548,
      "type" : "VEC2"
    },
    {
      "bufferView" : 5,
      "componentType" : 5126,
      "count" : 1548,
      "type" : "VEC2"
    }
  ]
}
