{
  "asset" : {
    "generator" : "UE Viewer (umodel) build 1590",
    "version" : "2.0"
  },
  "scene" : 0,
  "scenes" : [
    {
      "nodes" : [ 0 ]
    }
  ],
  "nodes" : [
    {
      "name" : "LM__Material53",
      "mesh" : 0
    }
  ],
  "materials" : [
    {
      "name" : "dummy_material_0",
      "pbrMetallicRoughness" : {
        "baseColorFactor" : [ 0.3, 0.3, 0.3, 1.0 ],
        "metallicFactor" : 0.1,
        "roughnessFactor" : 0.5
      }
    }
  ],
  "meshes" : [
    {
      "primitives" : [
        {
          "attributes" : {
            "POSITION" : 1,
            "NORMAL" : 2,
            "TANGENT" : 3,
            "TEXCOORD_0" : 4,
            "TEXCOORD_1" : 5
          },
          "indices" : 0,
          "material" : 0
        }
      ],
      "name" : "LM__Material53"
    }
  ],
  "buffers" : [
    {
      "uri" : "LM__Material53.bin",
      "byteLength" : 3467124
    }
  ],
  "bufferViews" : [
    {
      "buffer" : 0,
      "byteOffset" : 0,
      "byteLength" : 119556
    },
    {
      "buffer" : 0,
      "byteOffset" : 119556,
      "byteLength" : 717336
    },
    {
      "buffer" : 0,
      "byteOffset" : 836892,
      "byteLength" : 717336
    },
    {
      "buffer" : 0,
      "byteOffset" : 1554228,
      "byteLength" : 956448
    },
    {
      "buffer" : 0,
      "byteOffset" : 2510676,
      "byteLength" : 478224
    },
    {
      "buffer" : 0,
      "byteOffset" : 2988900,
      "byteLength" : 478224
    }
  ],
  "accessors" : [
    {
      "bufferView" : 0,
      "componentType" : 5123,
      "count" : 59778,
      "type" : "SCALAR"
    },
    {
      "bufferView" : 1,
      "min" : [ -7.21041, -0.0182843, 1.6585 ],
      "max" : [ 7.54037, 1.71973, 3.4291 ],
      "componentType" : 5126,
      "count" : 59778,
      "type" : "VEC3"
    },
    {
      "bufferView" : 2,
      "componentType" : 5126,
      "count" : 59778,
      "type" : "VEC3"
    },
    {
      "bufferView" : 3,
      "componentType" : 5126,
      "count" : 59778,
      "type" : "VEC4"
    },
    {
      "bufferView" : 4,
      "componentType" : 5126,
      "count" : 59778,
      "type" : "VEC2"
    },
    {
      "bufferView" : 5,
      "componentType" : 5126,
      "count" : 59778,
      "type" : "VEC2"
    }
  ]
}
