{
  "asset" : {
    "generator" : "UE Viewer (umodel) build 1590",
    "version" : "2.0"
  },
  "scene" : 0,
  "scenes" : [
    {
      "nodes" : [ 0 ]
    }
  ],
  "nodes" : [
    {
      "name" : "LM__DimGray",
      "mesh" : 0
    }
  ],
  "materials" : [
    {
      "name" : "dummy_material_0",
      "pbrMetallicRoughness" : {
        "baseColorFactor" : [ 0.3, 0.3, 0.3, 1.0 ],
        "metallicFactor" : 0.1,
        "roughnessFactor" : 0.5
      }
    }
  ],
  "meshes" : [
    {
      "primitives" : [
        {
          "attributes" : {
            "POSITION" : 1,
            "NORMAL" : 2,
            "TANGENT" : 3,
            "TEXCOORD_0" : 4,
            "TEXCOORD_1" : 5
          },
          "indices" : 0,
          "material" : 0
        }
      ],
      "name" : "LM__DimGray"
    }
  ],
  "buffers" : [
    {
      "uri" : "LM__DimGray.bin",
      "byteLength" : 7770060
    }
  ],
  "bufferViews" : [
    {
      "buffer" : 0,
      "byteOffset" : 0,
      "byteLength" : 518004
    },
    {
      "buffer" : 0,
      "byteOffset" : 518004,
      "byteLength" : 1554012
    },
    {
      "buffer" : 0,
      "byteOffset" : 2072016,
      "byteLength" : 1554012
    },
    {
      "buffer" : 0,
      "byteOffset" : 3626028,
      "byteLength" : 2072016
    },
    {
      "buffer" : 0,
      "byteOffset" : 5698044,
      "byteLength" : 1036008
    },
    {
      "buffer" : 0,
      "byteOffset" : 6734052,
      "byteLength" : 1036008
    }
  ],
  "accessors" : [
    {
      "bufferView" : 0,
      "componentType" : 5125,
      "count" : 129501,
      "type" : "SCALAR"
    },
    {
      "bufferView" : 1,
      "min" : [ -8.88742, -0.466606, -8.09554 ],
      "max" : [ 8.67995, 3.65882, 7.01519 ],
      "componentType" : 5126,
      "count" : 129501,
      "type" : "VEC3"
    },
    {
      "bufferView" : 2,
      "componentType" : 5126,
      "count" : 129501,
      "type" : "VEC3"
    },
    {
      "bufferView" : 3,
      "componentType" : 5126,
      "count" : 129501,
      "type" : "VEC4"
    },
    {
      "bufferView" : 4,
      "componentType" : 5126,
      "count" : 129501,
      "type" : "VEC2"
    },
    {
      "bufferView" : 5,
      "componentType" : 5126,
      "count" : 129501,
      "type" : "VEC2"
    }
  ]
}
