{
  "asset" : {
    "generator" : "UE Viewer (umodel) build 1590",
    "version" : "2.0"
  },
  "scene" : 0,
  "scenes" : [
    {
      "nodes" : [ 0 ]
    }
  ],
  "nodes" : [
    {
      "name" : "LM__Burnt",
      "mesh" : 0
    }
  ],
  "materials" : [
    {
      "name" : "dummy_material_0",
      "pbrMetallicRoughness" : {
        "baseColorFactor" : [ 0.3, 0.3, 0.3, 1.0 ],
        "metallicFactor" : 0.1,
        "roughnessFactor" : 0.5
      }
    }
  ],
  "meshes" : [
    {
      "primitives" : [
        {
          "attributes" : {
            "POSITION" : 1,
            "NORMAL" : 2,
            "TANGENT" : 3,
            "TEXCOORD_0" : 4
          },
          "indices" : 0,
          "material" : 0
        }
      ],
      "name" : "LM__Burnt"
    }
  ],
  "buffers" : [
    {
      "uri" : "LM__Burnt.bin",
      "byteLength" : 150000
    }
  ],
  "bufferViews" : [
    {
      "buffer" : 0,
      "byteOffset" : 0,
      "byteLength" : 6000
    },
    {
      "buffer" : 0,
      "byteOffset" : 6000,
      "byteLength" : 36000
    },
    {
      "buffer" : 0,
      "byteOffset" : 42000,
      "byteLength" : 36000
    },
    {
      "buffer" : 0,
      "byteOffset" : 78000,
      "byteLength" : 48000
    },
    {
      "buffer" : 0,
      "byteOffset" : 126000,
      "byteLength" : 24000
    }
  ],
  "accessors" : [
    {
      "bufferView" : 0,
      "componentType" : 5123,
      "count" : 3000,
      "type" : "SCALAR"
    },
    {
      "bufferView" : 1,
      "min" : [ -7.57896, 3.72296, -7.85754 ],
      "max" : [ 7.3684, 5.32449, 7.93524 ],
      "componentType" : 5126,
      "count" : 3000,
      "type" : "VEC3"
    },
    {
      "bufferView" : 2,
      "componentType" : 5126,
      "count" : 3000,
      "type" : "VEC3"
    },
    {
      "bufferView" : 3,
      "componentType" : 5126,
      "count" : 3000,
      "type" : "VEC4"
    },
    {
      "bufferView" : 4,
      "componentType" : 5126,
      "count" : 3000,
      "type" : "VEC2"
    }
  ]
}
