{
  "asset" : {
    "generator" : "UE Viewer (umodel) build 1590",
    "version" : "2.0"
  },
  "scene" : 0,
  "scenes" : [
    {
      "nodes" : [ 0 ]
    }
  ],
  "nodes" : [
    {
      "name" : "LM__White",
      "mesh" : 0
    }
  ],
  "materials" : [
    {
      "name" : "dummy_material_0",
      "pbrMetallicRoughness" : {
        "baseColorFactor" : [ 0.3, 0.3, 0.3, 1.0 ],
        "metallicFactor" : 0.1,
        "roughnessFactor" : 0.5
      }
    }
  ],
  "meshes" : [
    {
      "primitives" : [
        {
          "attributes" : {
            "POSITION" : 1,
            "NORMAL" : 2,
            "TANGENT" : 3,
            "TEXCOORD_0" : 4,
            "TEXCOORD_1" : 5
          },
          "indices" : 0,
          "material" : 0
        }
      ],
      "name" : "LM__White"
    }
  ],
  "buffers" : [
    {
      "uri" : "LM__White.bin",
      "byteLength" : 58464
    }
  ],
  "bufferViews" : [
    {
      "buffer" : 0,
      "byteOffset" : 0,
      "byteLength" : 2016
    },
    {
      "buffer" : 0,
      "byteOffset" : 2016,
      "byteLength" : 12096
    },
    {
      "buffer" : 0,
      "byteOffset" : 14112,
      "byteLength" : 12096
    },
    {
      "buffer" : 0,
      "byteOffset" : 26208,
      "byteLength" : 16128
    },
    {
      "buffer" : 0,
      "byteOffset" : 42336,
      "byteLength" : 8064
    },
    {
      "buffer" : 0,
      "byteOffset" : 50400,
      "byteLength" : 8064
    }
  ],
  "accessors" : [
    {
      "bufferView" : 0,
      "componentType" : 5123,
      "count" : 1008,
      "type" : "SCALAR"
    },
    {
      "bufferView" : 1,
      "min" : [ -9.91286, 1.44144, -11.5326 ],
      "max" : [ 9.70661, 2.54784, -1.6491 ],
      "componentType" : 5126,
      "count" : 1008,
      "type" : "VEC3"
    },
    {
      "bufferView" : 2,
      "componentType" : 5126,
      "count" : 1008,
      "type" : "VEC3"
    },
    {
      "bufferView" : 3,
      "componentType" : 5126,
      "count" : 1008,
      "type" : "VEC4"
    },
    {
      "bufferView" : 4,
      "componentType" : 5126,
      "count" : 1008,
      "type" : "VEC2"
    },
    {
      "bufferView" : 5,
      "componentType" : 5126,
      "count" : 1008,
      "type" : "VEC2"
    }
  ]
}
