{
  "asset" : {
    "generator" : "UE Viewer (umodel) build 1590",
    "version" : "2.0"
  },
  "scene" : 0,
  "scenes" : [
    {
      "nodes" : [ 0 ]
    }
  ],
  "nodes" : [
    {
      "name" : "LM__FabricBrown",
      "mesh" : 0
    }
  ],
  "materials" : [
    {
      "name" : "dummy_material_0",
      "pbrMetallicRoughness" : {
        "baseColorFactor" : [ 0.3, 0.3, 0.3, 1.0 ],
        "metallicFactor" : 0.1,
        "roughnessFactor" : 0.5
      }
    }
  ],
  "meshes" : [
    {
      "primitives" : [
        {
          "attributes" : {
            "POSITION" : 1,
            "NORMAL" : 2,
            "TANGENT" : 3,
            "TEXCOORD_0" : 4,
            "TEXCOORD_1" : 5
          },
          "indices" : 0,
          "material" : 0
        }
      ],
      "name" : "LM__FabricBrown"
    }
  ],
  "buffers" : [
    {
      "uri" : "LM__FabricBrown.bin",
      "byteLength" : 730800
    }
  ],
  "bufferViews" : [
    {
      "buffer" : 0,
      "byteOffset" : 0,
      "byteLength" : 25200
    },
    {
      "buffer" : 0,
      "byteOffset" : 25200,
      "byteLength" : 151200
    },
    {
      "buffer" : 0,
      "byteOffset" : 176400,
      "byteLength" : 151200
    },
    {
      "buffer" : 0,
      "byteOffset" : 327600,
      "byteLength" : 201600
    },
    {
      "buffer" : 0,
      "byteOffset" : 529200,
      "byteLength" : 100800
    },
    {
      "buffer" : 0,
      "byteOffset" : 630000,
      "byteLength" : 100800
    }
  ],
  "accessors" : [
    {
      "bufferView" : 0,
      "componentType" : 5123,
      "count" : 12600,
      "type" : "SCALAR"
    },
    {
      "bufferView" : 1,
      "min" : [ -1.48024, 0.726481, -3.65071 ],
      "max" : [ 1.2701, 1.84937, -2.65383 ],
      "componentType" : 5126,
      "count" : 12600,
      "type" : "VEC3"
    },
    {
      "bufferView" : 2,
      "componentType" : 5126,
      "count" : 12600,
      "type" : "VEC3"
    },
    {
      "bufferView" : 3,
      "componentType" : 5126,
      "count" : 12600,
      "type" : "VEC4"
    },
    {
      "bufferView" : 4,
      "componentType" : 5126,
      "count" : 12600,
      "type" : "VEC2"
    },
    {
      "bufferView" : 5,
      "componentType" : 5126,
      "count" : 12600,
      "type" : "VEC2"
    }
  ]
}
