{
  "asset" : {
    "generator" : "UE Viewer (umodel) build 1590",
    "version" : "2.0"
  },
  "scene" : 0,
  "scenes" : [
    {
      "nodes" : [ 0 ]
    }
  ],
  "nodes" : [
    {
      "name" : "LM__Metal_Steelplate",
      "mesh" : 0
    }
  ],
  "materials" : [
    {
      "name" : "dummy_material_0",
      "pbrMetallicRoughness" : {
        "baseColorFactor" : [ 0.3, 0.3, 0.3, 1.0 ],
        "metallicFactor" : 0.1,
        "roughnessFactor" : 0.5
      }
    }
  ],
  "meshes" : [
    {
      "primitives" : [
        {
          "attributes" : {
            "POSITION" : 1,
            "NORMAL" : 2,
            "TANGENT" : 3,
            "TEXCOORD_0" : 4,
            "TEXCOORD_1" : 5
          },
          "indices" : 0,
          "material" : 0
        }
      ],
      "name" : "LM__Metal_Steelplate"
    }
  ],
  "buffers" : [
    {
      "uri" : "LM__Metal_Steelplate.bin",
      "byteLength" : 47328
    }
  ],
  "bufferViews" : [
    {
      "buffer" : 0,
      "byteOffset" : 0,
      "byteLength" : 1632
    },
    {
      "buffer" : 0,
      "byteOffset" : 1632,
      "byteLength" : 9792
    },
    {
      "buffer" : 0,
      "byteOffset" : 11424,
      "byteLength" : 9792
    },
    {
      "buffer" : 0,
      "byteOffset" : 21216,
      "byteLength" : 13056
    },
    {
      "buffer" : 0,
      "byteOffset" : 34272,
      "byteLength" : 6528
    },
    {
      "buffer" : 0,
      "byteOffset" : 40800,
      "byteLength" : 6528
    }
  ],
  "accessors" : [
    {
      "bufferView" : 0,
      "componentType" : 5123,
      "count" : 816,
      "type" : "SCALAR"
    },
    {
      "bufferView" : 1,
      "min" : [ -6.86794, 0.74506, -11.5326 ],
      "max" : [ 6.655, 3.04492, 3.17066 ],
      "componentType" : 5126,
      "count" : 816,
      "type" : "VEC3"
    },
    {
      "bufferView" : 2,
      "componentType" : 5126,
      "count" : 816,
      "type" : "VEC3"
    },
    {
      "bufferView" : 3,
      "componentType" : 5126,
      "count" : 816,
      "type" : "VEC4"
    },
    {
      "bufferView" : 4,
      "componentType" : 5126,
      "count" : 816,
      "type" : "VEC2"
    },
    {
      "bufferView" : 5,
      "componentType" : 5126,
      "count" : 816,
      "type" : "VEC2"
    }
  ]
}
