{
  "asset" : {
    "generator" : "UE Viewer (umodel) build 1590",
    "version" : "2.0"
  },
  "scene" : 0,
  "scenes" : [
    {
      "nodes" : [ 0 ]
    }
  ],
  "nodes" : [
    {
      "name" : "LM__Chairgray",
      "mesh" : 0
    }
  ],
  "materials" : [
    {
      "name" : "dummy_material_0",
      "pbrMetallicRoughness" : {
        "baseColorFactor" : [ 0.3, 0.3, 0.3, 1.0 ],
        "metallicFactor" : 0.1,
        "roughnessFactor" : 0.5
      }
    }
  ],
  "meshes" : [
    {
      "primitives" : [
        {
          "attributes" : {
            "POSITION" : 1,
            "NORMAL" : 2,
            "TANGENT" : 3,
            "TEXCOORD_0" : 4,
            "TEXCOORD_1" : 5
          },
          "indices" : 0,
          "material" : 0
        }
      ],
      "name" : "LM__Chairgray"
    }
  ],
  "buffers" : [
    {
      "uri" : "LM__Chairgray.bin",
      "byteLength" : 826152
    }
  ],
  "bufferViews" : [
    {
      "buffer" : 0,
      "byteOffset" : 0,
      "byteLength" : 28488
    },
    {
      "buffer" : 0,
      "byteOffset" : 28488,
      "byteLength" : 170928
    },
    {
      "buffer" : 0,
      "byteOffset" : 199416,
      "byteLength" : 170928
    },
    {
      "buffer" : 0,
      "byteOffset" : 370344,
      "byteLength" : 227904
    },
    {
      "buffer" : 0,
      "byteOffset" : 598248,
      "byteLength" : 113952
    },
    {
      "buffer" : 0,
      "byteOffset" : 712200,
      "byteLength" : 113952
    }
  ],
  "accessors" : [
    {
      "bufferView" : 0,
      "componentType" : 5123,
      "count" : 14244,
      "type" : "SCALAR"
    },
    {
      "bufferView" : 1,
      "min" : [ -6.90558, 0.3671, 1.8375 ],
      "max" : [ 7.4202, 1.71528, 3.08268 ],
      "componentType" : 5126,
      "count" : 14244,
      "type" : "VEC3"
    },
    {
      "bufferView" : 2,
      "componentType" : 5126,
      "count" : 14244,
      "type" : "VEC3"
    },
    {
      "bufferView" : 3,
      "componentType" : 5126,
      "count" : 14244,
      "type" : "VEC4"
    },
    {
      "bufferView" : 4,
      "componentType" : 5126,
      "count" : 14244,
      "type" : "VEC2"
    },
    {
      "bufferView" : 5,
      "componentType" : 5126,
      "count" : 14244,
      "type" : "VEC2"
    }
  ]
}
