{
  "asset" : {
    "generator" : "UE Viewer (umodel) build 1590",
    "version" : "2.0"
  },
  "scene" : 0,
  "scenes" : [
    {
      "nodes" : [ 0 ]
    }
  ],
  "nodes" : [
    {
      "name" : "LM__VoyagerGray",
      "mesh" : 0
    }
  ],
  "materials" : [
    {
      "name" : "dummy_material_0",
      "pbrMetallicRoughness" : {
        "baseColorFactor" : [ 0.3, 0.3, 0.3, 1.0 ],
        "metallicFactor" : 0.1,
        "roughnessFactor" : 0.5
      }
    }
  ],
  "meshes" : [
    {
      "primitives" : [
        {
          "attributes" : {
            "POSITION" : 1,
            "NORMAL" : 2,
            "TANGENT" : 3,
            "TEXCOORD_0" : 4,
            "TEXCOORD_1" : 5
          },
          "indices" : 0,
          "material" : 0
        }
      ],
      "name" : "LM__VoyagerGray"
    }
  ],
  "buffers" : [
    {
      "uri" : "LM__VoyagerGray.bin",
      "byteLength" : 382800
    }
  ],
  "bufferViews" : [
    {
      "buffer" : 0,
      "byteOffset" : 0,
      "byteLength" : 13200
    },
    {
      "buffer" : 0,
      "byteOffset" : 13200,
      "byteLength" : 79200
    },
    {
      "buffer" : 0,
      "byteOffset" : 92400,
      "byteLength" : 79200
    },
    {
      "buffer" : 0,
      "byteOffset" : 171600,
      "byteLength" : 105600
    },
    {
      "buffer" : 0,
      "byteOffset" : 277200,
      "byteLength" : 52800
    },
    {
      "buffer" : 0,
      "byteOffset" : 330000,
      "byteLength" : 52800
    }
  ],
  "accessors" : [
    {
      "bufferView" : 0,
      "componentType" : 5123,
      "count" : 6600,
      "type" : "SCALAR"
    },
    {
      "bufferView" : 1,
      "min" : [ -10.028, -0.434634, -11.5358 ],
      "max" : [ 9.80332, 0.607628, 6.82277 ],
      "componentType" : 5126,
      "count" : 6600,
      "type" : "VEC3"
    },
    {
      "bufferView" : 2,
      "componentType" : 5126,
      "count" : 6600,
      "type" : "VEC3"
    },
    {
      "bufferView" : 3,
      "componentType" : 5126,
      "count" : 6600,
      "type" : "VEC4"
    },
    {
      "bufferView" : 4,
      "componentType" : 5126,
      "count" : 6600,
      "type" : "VEC2"
    },
    {
      "bufferView" : 5,
      "componentType" : 5126,
      "count" : 6600,
      "type" : "VEC2"
    }
  ]
}
