{
  "asset" : {
    "generator" : "UE Viewer (umodel) build 1590",
    "version" : "2.0"
  },
  "scene" : 0,
  "scenes" : [
    {
      "nodes" : [ 0 ]
    }
  ],
  "nodes" : [
    {
      "name" : "LM__Color_03",
      "mesh" : 0
    }
  ],
  "materials" : [
    {
      "name" : "dummy_material_0",
      "pbrMetallicRoughness" : {
        "baseColorFactor" : [ 0.3, 0.3, 0.3, 1.0 ],
        "metallicFactor" : 0.1,
        "roughnessFactor" : 0.5
      }
    }
  ],
  "meshes" : [
    {
      "primitives" : [
        {
          "attributes" : {
            "POSITION" : 1,
            "NORMAL" : 2,
            "TANGENT" : 3,
            "TEXCOORD_0" : 4,
            "TEXCOORD_1" : 5
          },
          "indices" : 0,
          "material" : 0
        }
      ],
      "name" : "LM__Color_03"
    }
  ],
  "buffers" : [
    {
      "uri" : "LM__Color_03.bin",
      "byteLength" : 813276
    }
  ],
  "bufferViews" : [
    {
      "buffer" : 0,
      "byteOffset" : 0,
      "byteLength" : 28044
    },
    {
      "buffer" : 0,
      "byteOffset" : 28044,
      "byteLength" : 168264
    },
    {
      "buffer" : 0,
      "byteOffset" : 196308,
      "byteLength" : 168264
    },
    {
      "buffer" : 0,
      "byteOffset" : 364572,
      "byteLength" : 224352
    },
    {
      "buffer" : 0,
      "byteOffset" : 588924,
      "byteLength" : 112176
    },
    {
      "buffer" : 0,
      "byteOffset" : 701100,
      "byteLength" : 112176
    }
  ],
  "accessors" : [
    {
      "bufferView" : 0,
      "componentType" : 5123,
      "count" : 14022,
      "type" : "SCALAR"
    },
    {
      "bufferView" : 1,
      "min" : [ -5.75487, -0.0177294, 4.46394 ],
      "max" : [ 5.54686, 0.759386, 6.98312 ],
      "componentType" : 5126,
      "count" : 14022,
      "type" : "VEC3"
    },
    {
      "bufferView" : 2,
      "componentType" : 5126,
      "count" : 14022,
      "type" : "VEC3"
    },
    {
      "bufferView" : 3,
      "componentType" : 5126,
      "count" : 14022,
      "type" : "VEC4"
    },
    {
      "bufferView" : 4,
      "componentType" : 5126,
      "count" : 14022,
      "type" : "VEC2"
    },
    {
      "bufferView" : 5,
      "componentType" : 5126,
      "count" : 14022,
      "type" : "VEC2"
    }
  ]
}
