{
  "asset" : {
    "generator" : "UE Viewer (umodel) build 1590",
    "version" : "2.0"
  },
  "scene" : 0,
  "scenes" : [
    {
      "nodes" : [ 0 ]
    }
  ],
  "nodes" : [
    {
      "name" : "LM__LightGr",
      "mesh" : 0
    }
  ],
  "materials" : [
    {
      "name" : "dummy_material_0",
      "pbrMetallicRoughness" : {
        "baseColorFactor" : [ 0.3, 0.3, 0.3, 1.0 ],
        "metallicFactor" : 0.1,
        "roughnessFactor" : 0.5
      }
    }
  ],
  "meshes" : [
    {
      "primitives" : [
        {
          "attributes" : {
            "POSITION" : 1,
            "NORMAL" : 2,
            "TANGENT" : 3,
            "TEXCOORD_0" : 4,
            "TEXCOORD_1" : 5
          },
          "indices" : 0,
          "material" : 0
        }
      ],
      "name" : "LM__LightGr"
    }
  ],
  "buffers" : [
    {
      "uri" : "LM__LightGr.bin",
      "byteLength" : 4108680
    }
  ],
  "bufferViews" : [
    {
      "buffer" : 0,
      "byteOffset" : 0,
      "byteLength" : 273912
    },
    {
      "buffer" : 0,
      "byteOffset" : 273912,
      "byteLength" : 821736
    },
    {
      "buffer" : 0,
      "byteOffset" : 1095648,
      "byteLength" : 821736
    },
    {
      "buffer" : 0,
      "byteOffset" : 1917384,
      "byteLength" : 1095648
    },
    {
      "buffer" : 0,
      "byteOffset" : 3013032,
      "byteLength" : 547824
    },
    {
      "buffer" : 0,
      "byteOffset" : 3560856,
      "byteLength" : 547824
    }
  ],
  "accessors" : [
    {
      "bufferView" : 0,
      "componentType" : 5125,
      "count" : 68478,
      "type" : "SCALAR"
    },
    {
      "bufferView" : 1,
      "min" : [ -9.94831, -0.434634, -11.6864 ],
      "max" : [ 7.9549, 4.76307, 7.00958 ],
      "componentType" : 5126,
      "count" : 68478,
      "type" : "VEC3"
    },
    {
      "bufferView" : 2,
      "componentType" : 5126,
      "count" : 68478,
      "type" : "VEC3"
    },
    {
      "bufferView" : 3,
      "componentType" : 5126,
      "count" : 68478,
      "type" : "VEC4"
    },
    {
      "bufferView" : 4,
      "componentType" : 5126,
      "count" : 68478,
      "type" : "VEC2"
    },
    {
      "bufferView" : 5,
      "componentType" : 5126,
      "count" : 68478,
      "type" : "VEC2"
    }
  ]
}
