{
  "asset" : {
    "generator" : "UE Viewer (umodel) build 1590",
    "version" : "2.0"
  },
  "scene" : 0,
  "scenes" : [
    {
      "nodes" : [ 0 ]
    }
  ],
  "nodes" : [
    {
      "name" : "LM__Color05",
      "mesh" : 0
    }
  ],
  "materials" : [
    {
      "name" : "dummy_material_0",
      "pbrMetallicRoughness" : {
        "baseColorFactor" : [ 0.3, 0.3, 0.3, 1.0 ],
        "metallicFactor" : 0.1,
        "roughnessFactor" : 0.5
      }
    }
  ],
  "meshes" : [
    {
      "primitives" : [
        {
          "attributes" : {
            "POSITION" : 1,
            "NORMAL" : 2,
            "TANGENT" : 3,
            "TEXCOORD_0" : 4
          },
          "indices" : 0,
          "material" : 0
        }
      ],
      "name" : "LM__Color05"
    }
  ],
  "buffers" : [
    {
      "uri" : "LM__Color05.bin",
      "byteLength" : 434400
    }
  ],
  "bufferViews" : [
    {
      "buffer" : 0,
      "byteOffset" : 0,
      "byteLength" : 17376
    },
    {
      "buffer" : 0,
      "byteOffset" : 17376,
      "byteLength" : 104256
    },
    {
      "buffer" : 0,
      "byteOffset" : 121632,
      "byteLength" : 104256
    },
    {
      "buffer" : 0,
      "byteOffset" : 225888,
      "byteLength" : 139008
    },
    {
      "buffer" : 0,
      "byteOffset" : 364896,
      "byteLength" : 69504
    }
  ],
  "accessors" : [
    {
      "bufferView" : 0,
      "componentType" : 5123,
      "count" : 8688,
      "type" : "SCALAR"
    },
    {
      "bufferView" : 1,
      "min" : [ -2.83785, -0.234199, -2.81632 ],
      "max" : [ 2.62909, 1.25711, 1.99367 ],
      "componentType" : 5126,
      "count" : 8688,
      "type" : "VEC3"
    },
    {
      "bufferView" : 2,
      "componentType" : 5126,
      "count" : 8688,
      "type" : "VEC3"
    },
    {
      "bufferView" : 3,
      "componentType" : 5126,
      "count" : 8688,
      "type" : "VEC4"
    },
    {
      "bufferView" : 4,
      "componentType" : 5126,
      "count" : 8688,
      "type" : "VEC2"
    }
  ]
}
