{
  "asset" : {
    "generator" : "UE Viewer (umodel) build 1590",
    "version" : "2.0"
  },
  "scene" : 0,
  "scenes" : [
    {
      "nodes" : [ 0 ]
    }
  ],
  "nodes" : [
    {
      "name" : "LM__Color06",
      "mesh" : 0
    }
  ],
  "materials" : [
    {
      "name" : "dummy_material_0",
      "pbrMetallicRoughness" : {
        "baseColorFactor" : [ 0.3, 0.3, 0.3, 1.0 ],
        "metallicFactor" : 0.1,
        "roughnessFactor" : 0.5
      }
    }
  ],
  "meshes" : [
    {
      "primitives" : [
        {
          "attributes" : {
            "POSITION" : 1,
            "NORMAL" : 2,
            "TANGENT" : 3,
            "TEXCOORD_0" : 4,
            "TEXCOORD_1" : 5
          },
          "indices" : 0,
          "material" : 0
        }
      ],
      "name" : "LM__Color06"
    }
  ],
  "buffers" : [
    {
      "uri" : "LM__Color06.bin",
      "byteLength" : 667812
    }
  ],
  "bufferViews" : [
    {
      "buffer" : 0,
      "byteOffset" : 0,
      "byteLength" : 23028
    },
    {
      "buffer" : 0,
      "byteOffset" : 23028,
      "byteLength" : 138168
    },
    {
      "buffer" : 0,
      "byteOffset" : 161196,
      "byteLength" : 138168
    },
    {
      "buffer" : 0,
      "byteOffset" : 299364,
      "byteLength" : 184224
    },
    {
      "buffer" : 0,
      "byteOffset" : 483588,
      "byteLength" : 92112
    },
    {
      "buffer" : 0,
      "byteOffset" : 575700,
      "byteLength" : 92112
    }
  ],
  "accessors" : [
    {
      "bufferView" : 0,
      "componentType" : 5123,
      "count" : 11514,
      "type" : "SCALAR"
    },
    {
      "bufferView" : 1,
      "min" : [ -9.0111, 0.607627, -10.1497 ],
      "max" : [ -5.68449, 3.65882, -6.82311 ],
      "componentType" : 5126,
      "count" : 11514,
      "type" : "VEC3"
    },
    {
      "bufferView" : 2,
      "componentType" : 5126,
      "count" : 11514,
      "type" : "VEC3"
    },
    {
      "bufferView" : 3,
      "componentType" : 5126,
      "count" : 11514,
      "type" : "VEC4"
    },
    {
      "bufferView" : 4,
      "componentType" : 5126,
      "count" : 11514,
      "type" : "VEC2"
    },
    {
      "bufferView" : 5,
      "componentType" : 5126,
      "count" : 11514,
      "type" : "VEC2"
    }
  ]
}
