{
  "asset" : {
    "generator" : "UE Viewer (umodel) build 1590",
    "version" : "2.0"
  },
  "scene" : 0,
  "scenes" : [
    {
      "nodes" : [ 0 ]
    }
  ],
  "nodes" : [
    {
      "name" : "LM__Color00",
      "mesh" : 0
    }
  ],
  "materials" : [
    {
      "name" : "dummy_material_0",
      "pbrMetallicRoughness" : {
        "baseColorFactor" : [ 0.3, 0.3, 0.3, 1.0 ],
        "metallicFactor" : 0.1,
        "roughnessFactor" : 0.5
      }
    }
  ],
  "meshes" : [
    {
      "primitives" : [
        {
          "attributes" : {
            "POSITION" : 1,
            "NORMAL" : 2,
            "TANGENT" : 3,
            "TEXCOORD_0" : 4,
            "TEXCOORD_1" : 5
          },
          "indices" : 0,
          "material" : 0
        }
      ],
      "name" : "LM__Color00"
    }
  ],
  "buffers" : [
    {
      "uri" : "LM__Color00.bin",
      "byteLength" : 1523720
    }
  ],
  "bufferViews" : [
    {
      "buffer" : 0,
      "byteOffset" : 0,
      "byteLength" : 52544
    },
    {
      "buffer" : 0,
      "byteOffset" : 52544,
      "byteLength" : 315252
    },
    {
      "buffer" : 0,
      "byteOffset" : 367796,
      "byteLength" : 315252
    },
    {
      "buffer" : 0,
      "byteOffset" : 683048,
      "byteLength" : 420336
    },
    {
      "buffer" : 0,
      "byteOffset" : 1103384,
      "byteLength" : 210168
    },
    {
      "buffer" : 0,
      "byteOffset" : 1313552,
      "byteLength" : 210168
    }
  ],
  "accessors" : [
    {
      "bufferView" : 0,
      "componentType" : 5123,
      "count" : 26271,
      "type" : "SCALAR"
    },
    {
      "bufferView" : 1,
      "min" : [ -7.61701, -0.434634, -8.124 ],
      "max" : [ 7.40644, 5.32449, 7.93524 ],
      "componentType" : 5126,
      "count" : 26271,
      "type" : "VEC3"
    },
    {
      "bufferView" : 2,
      "componentType" : 5126,
      "count" : 26271,
      "type" : "VEC3"
    },
    {
      "bufferView" : 3,
      "componentType" : 5126,
      "count" : 26271,
      "type" : "VEC4"
    },
    {
      "bufferView" : 4,
      "componentType" : 5126,
      "count" : 26271,
      "type" : "VEC2"
    },
    {
      "bufferView" : 5,
      "componentType" : 5126,
      "count" : 26271,
      "type" : "VEC2"
    }
  ]
}
