{
  "asset" : {
    "generator" : "UE Viewer (umodel) build 1590",
    "version" : "2.0"
  },
  "scene" : 0,
  "scenes" : [
    {
      "nodes" : [ 0 ]
    }
  ],
  "nodes" : [
    {
      "name" : "SC_Mainscreen",
      "mesh" : 0
    }
  ],
  "materials" : [
    {
      "name" : "dummy_material_0",
      "pbrMetallicRoughness" : {
        "baseColorFactor" : [ 0.3, 0.3, 0.3, 1.0 ],
        "metallicFactor" : 0.1,
        "roughnessFactor" : 0.5
      }
    }
  ],
  "meshes" : [
    {
      "primitives" : [
        {
          "attributes" : {
            "POSITION" : 1,
            "NORMAL" : 2,
            "TANGENT" : 3,
            "TEXCOORD_0" : 4
          },
          "indices" : 0,
          "material" : 0
        }
      ],
      "name" : "SC_Mainscreen"
    }
  ],
  "buffers" : [
    {
      "uri" : "SC_Mainscreen.bin",
      "byteLength" : 35400
    }
  ],
  "bufferViews" : [
    {
      "buffer" : 0,
      "byteOffset" : 0,
      "byteLength" : 1416
    },
    {
      "buffer" : 0,
      "byteOffset" : 1416,
      "byteLength" : 8496
    },
    {
      "buffer" : 0,
      "byteOffset" : 9912,
      "byteLength" : 8496
    },
    {
      "buffer" : 0,
      "byteOffset" : 18408,
      "byteLength" : 11328
    },
    {
      "buffer" : 0,
      "byteOffset" : 29736,
      "byteLength" : 5664
    }
  ],
  "accessors" : [
    {
      "bufferView" : 0,
      "componentType" : 5123,
      "count" : 708,
      "type" : "SCALAR"
    },
    {
      "bufferView" : 1,
      "min" : [ -1.88267, 0.771494, 6.7726 ],
      "max" : [ 1.67466, 3.19008, 7.01178 ],
      "componentType" : 5126,
      "count" : 708,
      "type" : "VEC3"
    },
    {
      "bufferView" : 2,
      "componentType" : 5126,
      "count" : 708,
      "type" : "VEC3"
    },
    {
      "bufferView" : 3,
      "componentType" : 5126,
      "count" : 708,
      "type" : "VEC4"
    },
    {
      "bufferView" : 4,
      "componentType" : 5126,
      "count" : 708,
      "type" : "VEC2"
    }
  ]
}
