{
  "asset" : {
    "generator" : "UE Viewer (umodel) build 1590",
    "version" : "2.0"
  },
  "scene" : 0,
  "scenes" : [
    {
      "nodes" : [ 0 ]
    }
  ],
  "nodes" : [
    {
      "name" : "SC_Plaque",
      "mesh" : 0
    }
  ],
  "materials" : [
    {
      "name" : "dummy_material_0",
      "pbrMetallicRoughness" : {
        "baseColorFactor" : [ 0.3, 0.3, 0.3, 1.0 ],
        "metallicFactor" : 0.1,
        "roughnessFactor" : 0.5
      }
    }
  ],
  "meshes" : [
    {
      "primitives" : [
        {
          "attributes" : {
            "POSITION" : 1,
            "NORMAL" : 2,
            "TANGENT" : 3,
            "TEXCOORD_0" : 4
          },
          "indices" : 0,
          "material" : 0
        }
      ],
      "name" : "SC_Plaque"
    }
  ],
  "buffers" : [
    {
      "uri" : "SC_Plaque.bin",
      "byteLength" : 1500
    }
  ],
  "bufferViews" : [
    {
      "buffer" : 0,
      "byteOffset" : 0,
      "byteLength" : 60
    },
    {
      "buffer" : 0,
      "byteOffset" : 60,
      "byteLength" : 360
    },
    {
      "buffer" : 0,
      "byteOffset" : 420,
      "byteLength" : 360
    },
    {
      "buffer" : 0,
      "byteOffset" : 780,
      "byteLength" : 480
    },
    {
      "buffer" : 0,
      "byteOffset" : 1260,
      "byteLength" : 240
    }
  ],
  "accessors" : [
    {
      "bufferView" : 0,
      "componentType" : 5123,
      "count" : 30,
      "type" : "SCALAR"
    },
    {
      "bufferView" : 1,
      "min" : [ 8.20728, 1.59632, -0.429028 ],
      "max" : [ 8.73907, 1.98116, -0.174733 ],
      "componentType" : 5126,
      "count" : 30,
      "type" : "VEC3"
    },
    {
      "bufferView" : 2,
      "componentType" : 5126,
      "count" : 30,
      "type" : "VEC3"
    },
    {
      "bufferView" : 3,
      "componentType" : 5126,
      "count" : 30,
      "type" : "VEC4"
    },
    {
      "bufferView" : 4,
      "componentType" : 5126,
      "count" : 30,
      "type" : "VEC2"
    }
  ]
}
