{
  "asset" : {
    "generator" : "UE Viewer (umodel) build 1590",
    "version" : "2.0"
  },
  "scene" : 0,
  "scenes" : [
    {
      "nodes" : [ 0 ]
    }
  ],
  "nodes" : [
    {
      "name" : "SC_scn12b",
      "mesh" : 0
    }
  ],
  "materials" : [
    {
      "name" : "dummy_material_0",
      "pbrMetallicRoughness" : {
        "baseColorFactor" : [ 0.3, 0.3, 0.3, 1.0 ],
        "metallicFactor" : 0.1,
        "roughnessFactor" : 0.5
      }
    }
  ],
  "meshes" : [
    {
      "primitives" : [
        {
          "attributes" : {
            "POSITION" : 1,
            "NORMAL" : 2,
            "TANGENT" : 3,
            "TEXCOORD_0" : 4
          },
          "indices" : 0,
          "material" : 0
        }
      ],
      "name" : "SC_scn12b"
    }
  ],
  "buffers" : [
    {
      "uri" : "SC_scn12b.bin",
      "byteLength" : 3300
    }
  ],
  "bufferViews" : [
    {
      "buffer" : 0,
      "byteOffset" : 0,
      "byteLength" : 132
    },
    {
      "buffer" : 0,
      "byteOffset" : 132,
      "byteLength" : 792
    },
    {
      "buffer" : 0,
      "byteOffset" : 924,
      "byteLength" : 792
    },
    {
      "buffer" : 0,
      "byteOffset" : 1716,
      "byteLength" : 1056
    },
    {
      "buffer" : 0,
      "byteOffset" : 2772,
      "byteLength" : 528
    }
  ],
  "accessors" : [
    {
      "bufferView" : 0,
      "componentType" : 5123,
      "count" : 66,
      "type" : "SCALAR"
    },
    {
      "bufferView" : 1,
      "min" : [ 7.94301, 0.367175, 0.0661517 ],
      "max" : [ 8.00428, 2.37597, 0.214076 ],
      "componentType" : 5126,
      "count" : 66,
      "type" : "VEC3"
    },
    {
      "bufferView" : 2,
      "componentType" : 5126,
      "count" : 66,
      "type" : "VEC3"
    },
    {
      "bufferView" : 3,
      "componentType" : 5126,
      "count" : 66,
      "type" : "VEC4"
    },
    {
      "bufferView" : 4,
      "componentType" : 5126,
      "count" : 66,
      "type" : "VEC2"
    }
  ]
}
