{
  "asset" : {
    "generator" : "UE Viewer (umodel) build 1590",
    "version" : "2.0"
  },
  "scene" : 0,
  "scenes" : [
    {
      "nodes" : [ 0 ]
    }
  ],
  "nodes" : [
    {
      "name" : "SC_scrn7_2",
      "mesh" : 0
    }
  ],
  "materials" : [
    {
      "name" : "dummy_material_0",
      "pbrMetallicRoughness" : {
        "baseColorFactor" : [ 0.3, 0.3, 0.3, 1.0 ],
        "metallicFactor" : 0.1,
        "roughnessFactor" : 0.5
      }
    }
  ],
  "meshes" : [
    {
      "primitives" : [
        {
          "attributes" : {
            "POSITION" : 1,
            "NORMAL" : 2,
            "TANGENT" : 3,
            "TEXCOORD_0" : 4
          },
          "indices" : 0,
          "material" : 0
        }
      ],
      "name" : "SC_scrn7_2"
    }
  ],
  "buffers" : [
    {
      "uri" : "SC_scrn7_2.bin",
      "byteLength" : 300
    }
  ],
  "bufferViews" : [
    {
      "buffer" : 0,
      "byteOffset" : 0,
      "byteLength" : 12
    },
    {
      "buffer" : 0,
      "byteOffset" : 12,
      "byteLength" : 72
    },
    {
      "buffer" : 0,
      "byteOffset" : 84,
      "byteLength" : 72
    },
    {
      "buffer" : 0,
      "byteOffset" : 156,
      "byteLength" : 96
    },
    {
      "buffer" : 0,
      "byteOffset" : 252,
      "byteLength" : 48
    }
  ],
  "accessors" : [
    {
      "bufferView" : 0,
      "componentType" : 5123,
      "count" : 6,
      "type" : "SCALAR"
    },
    {
      "bufferView" : 1,
      "min" : [ 6.217, 1.41096, 3.94955 ],
      "max" : [ 6.72927, 2.30054, 4.29673 ],
      "componentType" : 5126,
      "count" : 6,
      "type" : "VEC3"
    },
    {
      "bufferView" : 2,
      "componentType" : 5126,
      "count" : 6,
      "type" : "VEC3"
    },
    {
      "bufferView" : 3,
      "componentType" : 5126,
      "count" : 6,
      "type" : "VEC4"
    },
    {
      "bufferView" : 4,
      "componentType" : 5126,
      "count" : 6,
      "type" : "VEC2"
    }
  ]
}
