{
  "asset" : {
    "generator" : "UE Viewer (umodel) build 1590",
    "version" : "2.0"
  },
  "scene" : 0,
  "scenes" : [
    {
      "nodes" : [ 0 ]
    }
  ],
  "nodes" : [
    {
      "name" : "SC_scrn1_1",
      "mesh" : 0
    }
  ],
  "materials" : [
    {
      "name" : "dummy_material_0",
      "pbrMetallicRoughness" : {
        "baseColorFactor" : [ 0.3, 0.3, 0.3, 1.0 ],
        "metallicFactor" : 0.1,
        "roughnessFactor" : 0.5
      }
    }
  ],
  "meshes" : [
    {
      "primitives" : [
        {
          "attributes" : {
            "POSITION" : 1,
            "NORMAL" : 2,
            "TANGENT" : 3,
            "TEXCOORD_0" : 4
          },
          "indices" : 0,
          "material" : 0
        }
      ],
      "name" : "SC_scrn1_1"
    }
  ],
  "buffers" : [
    {
      "uri" : "SC_scrn1_1.bin",
      "byteLength" : 452
    }
  ],
  "bufferViews" : [
    {
      "buffer" : 0,
      "byteOffset" : 0,
      "byteLength" : 20
    },
    {
      "buffer" : 0,
      "byteOffset" : 20,
      "byteLength" : 108
    },
    {
      "buffer" : 0,
      "byteOffset" : 128,
      "byteLength" : 108
    },
    {
      "buffer" : 0,
      "byteOffset" : 236,
      "byteLength" : 144
    },
    {
      "buffer" : 0,
      "byteOffset" : 380,
      "byteLength" : 72
    }
  ],
  "accessors" : [
    {
      "bufferView" : 0,
      "componentType" : 5123,
      "count" : 9,
      "type" : "SCALAR"
    },
    {
      "bufferView" : 1,
      "min" : [ -6.42001, 1.07264, 3.1072 ],
      "max" : [ -5.57263, 1.23416, 3.96908 ],
      "componentType" : 5126,
      "count" : 9,
      "type" : "VEC3"
    },
    {
      "bufferView" : 2,
      "componentType" : 5126,
      "count" : 9,
      "type" : "VEC3"
    },
    {
      "bufferView" : 3,
      "componentType" : 5126,
      "count" : 9,
      "type" : "VEC4"
    },
    {
      "bufferView" : 4,
      "componentType" : 5126,
      "count" : 9,
      "type" : "VEC2"
    }
  ]
}
