{
  "asset" : {
    "generator" : "UE Viewer (umodel) build 1590",
    "version" : "2.0"
  },
  "scene" : 0,
  "scenes" : [
    {
      "nodes" : [ 0 ]
    }
  ],
  "nodes" : [
    {
      "name" : "SC_scrn2_1",
      "mesh" : 0
    }
  ],
  "materials" : [
    {
      "name" : "dummy_material_0",
      "pbrMetallicRoughness" : {
        "baseColorFactor" : [ 0.3, 0.3, 0.3, 1.0 ],
        "metallicFactor" : 0.1,
        "roughnessFactor" : 0.5
      }
    }
  ],
  "meshes" : [
    {
      "primitives" : [
        {
          "attributes" : {
            "POSITION" : 1,
            "NORMAL" : 2,
            "TANGENT" : 3,
            "TEXCOORD_0" : 4
          },
          "indices" : 0,
          "material" : 0
        }
      ],
      "name" : "SC_scrn2_1"
    }
  ],
  "buffers" : [
    {
      "uri" : "SC_scrn2_1.bin",
      "byteLength" : 7200
    }
  ],
  "bufferViews" : [
    {
      "buffer" : 0,
      "byteOffset" : 0,
      "byteLength" : 288
    },
    {
      "buffer" : 0,
      "byteOffset" : 288,
      "byteLength" : 1728
    },
    {
      "buffer" : 0,
      "byteOffset" : 2016,
      "byteLength" : 1728
    },
    {
      "buffer" : 0,
      "byteOffset" : 3744,
      "byteLength" : 2304
    },
    {
      "buffer" : 0,
      "byteOffset" : 6048,
      "byteLength" : 1152
    }
  ],
  "accessors" : [
    {
      "bufferView" : 0,
      "componentType" : 5123,
      "count" : 144,
      "type" : "SCALAR"
    },
    {
      "bufferView" : 1,
      "min" : [ -5.72478, 1.99784, -4.22865 ],
      "max" : [ -5.33797, 1.99784, -3.72499 ],
      "componentType" : 5126,
      "count" : 144,
      "type" : "VEC3"
    },
    {
      "bufferView" : 2,
      "componentType" : 5126,
      "count" : 144,
      "type" : "VEC3"
    },
    {
      "bufferView" : 3,
      "componentType" : 5126,
      "count" : 144,
      "type" : "VEC4"
    },
    {
      "bufferView" : 4,
      "componentType" : 5126,
      "count" : 144,
      "type" : "VEC2"
    }
  ]
}
