{
  "asset" : {
    "generator" : "UE Viewer (umodel) build 1590",
    "version" : "2.0"
  },
  "scene" : 0,
  "scenes" : [
    {
      "nodes" : [ 0 ]
    }
  ],
  "nodes" : [
    {
      "name" : "SC_scrn2_5",
      "mesh" : 0
    }
  ],
  "materials" : [
    {
      "name" : "dummy_material_0",
      "pbrMetallicRoughness" : {
        "baseColorFactor" : [ 0.3, 0.3, 0.3, 1.0 ],
        "metallicFactor" : 0.1,
        "roughnessFactor" : 0.5
      }
    }
  ],
  "meshes" : [
    {
      "primitives" : [
        {
          "attributes" : {
            "POSITION" : 1,
            "NORMAL" : 2,
            "TANGENT" : 3,
            "TEXCOORD_0" : 4
          },
          "indices" : 0,
          "material" : 0
        }
      ],
      "name" : "SC_scrn2_5"
    }
  ],
  "buffers" : [
    {
      "uri" : "SC_scrn2_5.bin",
      "byteLength" : 6900
    }
  ],
  "bufferViews" : [
    {
      "buffer" : 0,
      "byteOffset" : 0,
      "byteLength" : 276
    },
    {
      "buffer" : 0,
      "byteOffset" : 276,
      "byteLength" : 1656
    },
    {
      "buffer" : 0,
      "byteOffset" : 1932,
      "byteLength" : 1656
    },
    {
      "buffer" : 0,
      "byteOffset" : 3588,
      "byteLength" : 2208
    },
    {
      "buffer" : 0,
      "byteOffset" : 5796,
      "byteLength" : 1104
    }
  ],
  "accessors" : [
    {
      "bufferView" : 0,
      "componentType" : 5123,
      "count" : 138,
      "type" : "SCALAR"
    },
    {
      "bufferView" : 1,
      "min" : [ -7.13273, 1.99784, -2.51777 ],
      "max" : [ -6.68274, 1.99784, -2.18068 ],
      "componentType" : 5126,
      "count" : 138,
      "type" : "VEC3"
    },
    {
      "bufferView" : 2,
      "componentType" : 5126,
      "count" : 138,
      "type" : "VEC3"
    },
    {
      "bufferView" : 3,
      "componentType" : 5126,
      "count" : 138,
      "type" : "VEC4"
    },
    {
      "bufferView" : 4,
      "componentType" : 5126,
      "count" : 138,
      "type" : "VEC2"
    }
  ]
}
