{
  "asset" : {
    "generator" : "UE Viewer (umodel) build 1590",
    "version" : "2.0"
  },
  "scene" : 0,
  "scenes" : [
    {
      "nodes" : [ 0 ]
    }
  ],
  "nodes" : [
    {
      "name" : "SC_scrn4_1",
      "mesh" : 0
    }
  ],
  "materials" : [
    {
      "name" : "dummy_material_0",
      "pbrMetallicRoughness" : {
        "baseColorFactor" : [ 0.3, 0.3, 0.3, 1.0 ],
        "metallicFactor" : 0.1,
        "roughnessFactor" : 0.5
      }
    }
  ],
  "meshes" : [
    {
      "primitives" : [
        {
          "attributes" : {
            "POSITION" : 1,
            "NORMAL" : 2,
            "TANGENT" : 3,
            "TEXCOORD_0" : 4
          },
          "indices" : 0,
          "material" : 0
        }
      ],
      "name" : "SC_scrn4_1"
    }
  ],
  "buffers" : [
    {
      "uri" : "SC_scrn4_1.bin",
      "byteLength" : 900
    }
  ],
  "bufferViews" : [
    {
      "buffer" : 0,
      "byteOffset" : 0,
      "byteLength" : 36
    },
    {
      "buffer" : 0,
      "byteOffset" : 36,
      "byteLength" : 216
    },
    {
      "buffer" : 0,
      "byteOffset" : 252,
      "byteLength" : 216
    },
    {
      "buffer" : 0,
      "byteOffset" : 468,
      "byteLength" : 288
    },
    {
      "buffer" : 0,
      "byteOffset" : 756,
      "byteLength" : 144
    }
  ],
  "accessors" : [
    {
      "bufferView" : 0,
      "componentType" : 5123,
      "count" : 18,
      "type" : "SCALAR"
    },
    {
      "bufferView" : 1,
      "min" : [ -1.61448, 2.22975, -8.06229 ],
      "max" : [ 1.40941, 3.21784, -7.96157 ],
      "componentType" : 5126,
      "count" : 18,
      "type" : "VEC3"
    },
    {
      "bufferView" : 2,
      "componentType" : 5126,
      "count" : 18,
      "type" : "VEC3"
    },
    {
      "bufferView" : 3,
      "componentType" : 5126,
      "count" : 18,
      "type" : "VEC4"
    },
    {
      "bufferView" : 4,
      "componentType" : 5126,
      "count" : 18,
      "type" : "VEC2"
    }
  ]
}
