{
  "asset" : {
    "generator" : "UE Viewer (umodel) build 1590",
    "version" : "2.0"
  },
  "scene" : 0,
  "scenes" : [
    {
      "nodes" : [ 0 ]
    }
  ],
  "nodes" : [
    {
      "name" : "UL_Lights",
      "mesh" : 0
    }
  ],
  "materials" : [
    {
      "name" : "dummy_material_0",
      "pbrMetallicRoughness" : {
        "baseColorFactor" : [ 0.3, 0.3, 0.3, 1.0 ],
        "metallicFactor" : 0.1,
        "roughnessFactor" : 0.5
      }
    }
  ],
  "meshes" : [
    {
      "primitives" : [
        {
          "attributes" : {
            "POSITION" : 1,
            "NORMAL" : 2,
            "TANGENT" : 3,
            "TEXCOORD_0" : 4
          },
          "indices" : 0,
          "material" : 0
        }
      ],
      "name" : "UL_Lights"
    }
  ],
  "buffers" : [
    {
      "uri" : "UL_Lights.bin",
      "byteLength" : 192152
    }
  ],
  "bufferViews" : [
    {
      "buffer" : 0,
      "byteOffset" : 0,
      "byteLength" : 7688
    },
    {
      "buffer" : 0,
      "byteOffset" : 7688,
      "byteLength" : 46116
    },
    {
      "buffer" : 0,
      "byteOffset" : 53804,
      "byteLength" : 46116
    },
    {
      "buffer" : 0,
      "byteOffset" : 99920,
      "byteLength" : 61488
    },
    {
      "buffer" : 0,
      "byteOffset" : 161408,
      "byteLength" : 30744
    }
  ],
  "accessors" : [
    {
      "bufferView" : 0,
      "componentType" : 5123,
      "count" : 3843,
      "type" : "SCALAR"
    },
    {
      "bufferView" : 1,
      "min" : [ -8.94987, 0.623663, -10.0953 ],
      "max" : [ 7.30805, 4.76307, 2.05268 ],
      "componentType" : 5126,
      "count" : 3843,
      "type" : "VEC3"
    },
    {
      "bufferView" : 2,
      "componentType" : 5126,
      "count" : 3843,
      "type" : "VEC3"
    },
    {
      "bufferView" : 3,
      "componentType" : 5126,
      "count" : 3843,
      "type" : "VEC4"
    },
    {
      "bufferView" : 4,
      "componentType" : 5126,
      "count" : 3843,
      "type" : "VEC2"
    }
  ]
}
