{
  "asset" : {
    "generator" : "UE Viewer (umodel) build 1590",
    "version" : "2.0"
  },
  "scene" : 0,
  "scenes" : [
    {
      "nodes" : [ 0 ]
    }
  ],
  "nodes" : [
    {
      "name" : "UL_LightWhiteToBlueGlow",
      "mesh" : 0
    }
  ],
  "materials" : [
    {
      "name" : "dummy_material_0",
      "pbrMetallicRoughness" : {
        "baseColorFactor" : [ 0.3, 0.3, 0.3, 1.0 ],
        "metallicFactor" : 0.1,
        "roughnessFactor" : 0.5
      }
    }
  ],
  "meshes" : [
    {
      "primitives" : [
        {
          "attributes" : {
            "POSITION" : 1,
            "NORMAL" : 2,
            "TANGENT" : 3,
            "TEXCOORD_0" : 4
          },
          "indices" : 0,
          "material" : 0
        }
      ],
      "name" : "UL_LightWhiteToBlueGlow"
    }
  ],
  "buffers" : [
    {
      "uri" : "UL_LightWhiteToBlueGlow.bin",
      "byteLength" : 403200
    }
  ],
  "bufferViews" : [
    {
      "buffer" : 0,
      "byteOffset" : 0,
      "byteLength" : 16128
    },
    {
      "buffer" : 0,
      "byteOffset" : 16128,
      "byteLength" : 96768
    },
    {
      "buffer" : 0,
      "byteOffset" : 112896,
      "byteLength" : 96768
    },
    {
      "buffer" : 0,
      "byteOffset" : 209664,
      "byteLength" : 129024
    },
    {
      "buffer" : 0,
      "byteOffset" : 338688,
      "byteLength" : 64512
    }
  ],
  "accessors" : [
    {
      "bufferView" : 0,
      "componentType" : 5123,
      "count" : 8064,
      "type" : "SCALAR"
    },
    {
      "bufferView" : 1,
      "min" : [ -0.703618, 3.63748, -0.558571 ],
      "max" : [ 0.487295, 4.03817, 0.632343 ],
      "componentType" : 5126,
      "count" : 8064,
      "type" : "VEC3"
    },
    {
      "bufferView" : 2,
      "componentType" : 5126,
      "count" : 8064,
      "type" : "VEC3"
    },
    {
      "bufferView" : 3,
      "componentType" : 5126,
      "count" : 8064,
      "type" : "VEC4"
    },
    {
      "bufferView" : 4,
      "componentType" : 5126,
      "count" : 8064,
      "type" : "VEC2"
    }
  ]
}
