{
  "asset" : {
    "generator" : "UE Viewer (umodel) build 1590",
    "version" : "2.0"
  },
  "scene" : 0,
  "scenes" : [
    {
      "nodes" : [ 0 ]
    }
  ],
  "nodes" : [
    {
      "name" : "UL_SmallLights",
      "mesh" : 0
    }
  ],
  "materials" : [
    {
      "name" : "dummy_material_0",
      "pbrMetallicRoughness" : {
        "baseColorFactor" : [ 0.3, 0.3, 0.3, 1.0 ],
        "metallicFactor" : 0.1,
        "roughnessFactor" : 0.5
      }
    }
  ],
  "meshes" : [
    {
      "primitives" : [
        {
          "attributes" : {
            "POSITION" : 1,
            "NORMAL" : 2,
            "TANGENT" : 3,
            "TEXCOORD_0" : 4
          },
          "indices" : 0,
          "material" : 0
        }
      ],
      "name" : "UL_SmallLights"
    }
  ],
  "buffers" : [
    {
      "uri" : "UL_SmallLights.bin",
      "byteLength" : 49500
    }
  ],
  "bufferViews" : [
    {
      "buffer" : 0,
      "byteOffset" : 0,
      "byteLength" : 1980
    },
    {
      "buffer" : 0,
      "byteOffset" : 1980,
      "byteLength" : 11880
    },
    {
      "buffer" : 0,
      "byteOffset" : 13860,
      "byteLength" : 11880
    },
    {
      "buffer" : 0,
      "byteOffset" : 25740,
      "byteLength" : 15840
    },
    {
      "buffer" : 0,
      "byteOffset" : 41580,
      "byteLength" : 7920
    }
  ],
  "accessors" : [
    {
      "bufferView" : 0,
      "componentType" : 5123,
      "count" : 990,
      "type" : "SCALAR"
    },
    {
      "bufferView" : 1,
      "min" : [ -9.32159, 2.29128, -4.9395 ],
      "max" : [ 9.08857, 3.52981, 4.44213 ],
      "componentType" : 5126,
      "count" : 990,
      "type" : "VEC3"
    },
    {
      "bufferView" : 2,
      "componentType" : 5126,
      "count" : 990,
      "type" : "VEC3"
    },
    {
      "bufferView" : 3,
      "componentType" : 5126,
      "count" : 990,
      "type" : "VEC4"
    },
    {
      "bufferView" : 4,
      "componentType" : 5126,
      "count" : 990,
      "type" : "VEC2"
    }
  ]
}
