{
  "asset" : {
    "generator" : "UE Viewer (umodel) build 1590",
    "version" : "2.0"
  },
  "scene" : 0,
  "scenes" : [
    {
      "nodes" : [ 0 ]
    }
  ],
  "nodes" : [
    {
      "name" : "UL_Windows",
      "mesh" : 0
    }
  ],
  "materials" : [
    {
      "name" : "dummy_material_0",
      "pbrMetallicRoughness" : {
        "baseColorFactor" : [ 0.3, 0.3, 0.3, 1.0 ],
        "metallicFactor" : 0.1,
        "roughnessFactor" : 0.5
      }
    }
  ],
  "meshes" : [
    {
      "primitives" : [
        {
          "attributes" : {
            "POSITION" : 1,
            "NORMAL" : 2,
            "TANGENT" : 3,
            "TEXCOORD_0" : 4
          },
          "indices" : 0,
          "material" : 0
        }
      ],
      "name" : "UL_Windows"
    }
  ],
  "buffers" : [
    {
      "uri" : "UL_Windows.bin",
      "byteLength" : 36752
    }
  ],
  "bufferViews" : [
    {
      "buffer" : 0,
      "byteOffset" : 0,
      "byteLength" : 1472
    },
    {
      "buffer" : 0,
      "byteOffset" : 1472,
      "byteLength" : 8820
    },
    {
      "buffer" : 0,
      "byteOffset" : 10292,
      "byteLength" : 8820
    },
    {
      "buffer" : 0,
      "byteOffset" : 19112,
      "byteLength" : 11760
    },
    {
      "buffer" : 0,
      "byteOffset" : 30872,
      "byteLength" : 5880
    }
  ],
  "accessors" : [
    {
      "bufferView" : 0,
      "componentType" : 5123,
      "count" : 735,
      "type" : "SCALAR"
    },
    {
      "bufferView" : 1,
      "min" : [ -6.65613, 4.52608, -1.73357 ],
      "max" : [ 6.44634, 4.52608, 3.35623 ],
      "componentType" : 5126,
      "count" : 735,
      "type" : "VEC3"
    },
    {
      "bufferView" : 2,
      "componentType" : 5126,
      "count" : 735,
      "type" : "VEC3"
    },
    {
      "bufferView" : 3,
      "componentType" : 5126,
      "count" : 735,
      "type" : "VEC4"
    },
    {
      "bufferView" : 4,
      "componentType" : 5126,
      "count" : 735,
      "type" : "VEC2"
    }
  ]
}
